<svg width="53" height="95" viewBox="0 0 53 95" fill="none" xmlns="http://www.w3.org/2000/svg">
<path d="M47.0864 42.6312C51.0287 37.6502 53.2104 31.2032 52.6851 24.2297C51.7149 11.3452 41.3078 0.951358 28.5012 0.0642489C13.243 -0.99364 0.540527 11.1507 0.540527 26.279C0.540527 32.5789 2.74595 38.357 6.41377 42.8827C7.8951 44.7091 8.20272 47.2376 7.13787 49.3391C6.9249 49.7613 6.71193 50.1883 6.53209 50.6627C4.07583 57.1191 11.2269 62.214 12.4574 56.991C12.9165 55.046 12.022 53.3714 13.0064 52.7832C14.4499 52.6409 13.9103 55.677 13.5838 61.4598C13.1152 63.7606 12.765 65.2359 13.2998 66.531C13.9671 68.1534 16.6411 69.0168 16.8541 65.4399C16.9487 63.8507 16.8115 62.2188 17.0244 61.7586C17.209 61.3554 17.687 61.047 18.094 61.2178C19.2866 61.7112 19.0311 66.5832 19.0311 67.921C18.6998 78.2721 16.8351 82.7599 18.1177 88.4952C18.5625 90.4829 19.4428 92.4611 21.3217 93.5048C22.1499 93.965 23.1343 94.1357 24.0524 93.908C26.9914 93.187 27.4505 89.5247 27.4221 86.6166C27.1665 61.0755 26.8258 61.7539 28.2409 59.9939C28.9318 59.1353 30.186 58.8743 31.0805 59.51C31.9087 60.0983 31.8424 60.9569 31.762 61.7539C30.6261 73.4428 30.0582 75.4638 31.6105 76.7778C32.2636 77.3328 33.1676 77.5226 34.0005 77.3281C36.3716 76.7731 37.8718 74.5672 38.4161 72.2758C39.0172 69.7663 38.7521 68.2151 37.8577 54.9417C37.5926 51.0469 40.9102 51.73 40.6121 54.6807C40.489 55.8999 40.082 57.3041 41.1185 58.1485C41.8615 58.7557 42.9547 58.6039 43.6646 57.9588C44.9188 56.8202 44.8951 55.0982 44.7721 53.528C44.7153 52.8069 44.6443 52.0906 44.5591 51.3742C44.19 48.2243 45.127 45.1076 47.0864 42.6312Z" fill="url(#paint0_linear_29:153)"/>
<defs>
<linearGradient id="paint0_linear_29:153" x1="24.8287" y1="111.295" x2="26.4462" y2="36.2598" gradientUnits="userSpaceOnUse">
<stop offset="0.2626" stop-color="#780000"/>
<stop offset="1" stop-color="#EC0000"/>
</linearGradient>
</defs>
</svg>
