<svg width="24" height="21" viewBox="0 0 24 21" fill="none" xmlns="http://www.w3.org/2000/svg">
<path d="M15.687 7.5375C16.0546 7.53759 16.4094 7.67269 16.684 7.91713C16.9586 8.16158 17.1339 8.49835 17.1765 8.8635L17.187 9.0375V15.5895C17.1968 16.9573 16.67 18.2744 15.7196 19.2581C14.7692 20.2418 13.471 20.8137 12.1037 20.851C10.7363 20.8883 9.40891 20.3881 8.40628 19.4576C7.40366 18.5272 6.80579 17.2408 6.741 15.8745L6.7335 15.5895V9.0375C6.73359 8.66987 6.86869 8.31507 7.11313 8.04049C7.35758 7.7659 7.69435 7.59064 8.0595 7.548L8.2335 7.5375H15.687ZM5.637 7.5375C5.41874 7.9141 5.28562 8.33394 5.247 8.7675L5.2335 9.0375V15.5895L5.241 15.9045C5.286 16.869 5.5335 17.7795 5.943 18.597C5.31138 18.8623 4.62535 18.9722 3.94246 18.9176C3.25958 18.8629 2.59975 18.6453 2.01835 18.283C1.43694 17.9206 0.950908 17.4242 0.601023 16.8352C0.251138 16.2462 0.0476056 15.5819 0.00750017 14.898L0 14.646V9.0375C4.84658e-05 8.6701 0.134934 8.31549 0.379073 8.04094C0.623212 7.76639 0.959624 7.59099 1.3245 7.548L1.5 7.5375H5.6355H5.637ZM18.285 7.5375H22.461C22.8286 7.53759 23.1834 7.67269 23.458 7.91713C23.7326 8.16158 23.9079 8.49835 23.9505 8.8635L23.961 9.0375V14.6475C23.961 15.3569 23.7849 16.0551 23.4485 16.6796C23.1121 17.3041 22.6258 17.8353 22.0334 18.2255C21.441 18.6157 20.761 18.8527 20.0544 18.9151C19.3478 18.9776 18.6367 18.8637 17.985 18.5835C18.3881 17.7741 18.6228 16.8913 18.675 15.9885L18.687 15.5895V9.0375L18.678 8.814C18.6453 8.36425 18.5109 7.92779 18.285 7.5375V7.5375ZM11.958 0C12.8442 0 13.694 0.352023 14.3206 0.978629C14.9472 1.60524 15.2992 2.45509 15.2992 3.34125C15.2992 4.2274 14.9472 5.07726 14.3206 5.70387C13.694 6.33048 12.8442 6.6825 11.958 6.6825C11.0718 6.6825 10.222 6.33048 9.59538 5.70387C8.96877 5.07726 8.61675 4.2274 8.61675 3.34125C8.61675 2.45509 8.96877 1.60524 9.59538 0.978629C10.222 0.352023 11.0718 0 11.958 0V0ZM19.4385 0.942C20.1997 0.942 20.9298 1.2444 21.4681 1.78268C22.0063 2.32095 22.3088 3.05101 22.3088 3.81225C22.3088 4.57349 22.0063 5.30355 21.4681 5.84182C20.9298 6.3801 20.1997 6.6825 19.4385 6.6825C18.6773 6.6825 17.9472 6.3801 17.4089 5.84182C16.8707 5.30355 16.5682 4.57349 16.5682 3.81225C16.5682 3.05101 16.8707 2.32095 17.4089 1.78268C17.9472 1.2444 18.6773 0.942 19.4385 0.942V0.942ZM4.5 0.942C5.26124 0.942 5.9913 1.2444 6.52957 1.78268C7.06785 2.32095 7.37025 3.05101 7.37025 3.81225C7.37025 4.57349 7.06785 5.30355 6.52957 5.84182C5.9913 6.3801 5.26124 6.6825 4.5 6.6825C3.73876 6.6825 3.0087 6.3801 2.47043 5.84182C1.93215 5.30355 1.62975 4.57349 1.62975 3.81225C1.62975 3.05101 1.93215 2.32095 2.47043 1.78268C3.0087 1.2444 3.73876 0.942 4.5 0.942V0.942Z" fill="#FD5252"/>
</svg>
